<?xml version="1.0" standalone="no"?>
<!DOCTYPE svg PUBLIC "-//W3C//DTD SVG 20010904//EN"
 "http://www.w3.org/TR/2001/REC-SVG-20010904/DTD/svg10.dtd">
<svg version="1.0" xmlns="http://www.w3.org/2000/svg"
 width="2362.000000pt" height="945.000000pt" viewBox="0 0 2362.000000 945.000000"
 preserveAspectRatio="xMidYMid meet">

<g transform="translate(0.000000,945.000000) scale(0.100000,-0.100000)"
fill="#000000" stroke="none">
<path d="M5900 4725 l0 -4725 8860 0 8860 0 0 4725 0 4725 -8860 0 -8860 0 0
-4725z m1128 2885 c41 -25 67 -67 93 -150 37 -119 31 -185 -50 -555 -149 -679
-136 -608 -216 -1255 -73 -596 -78 -658 -72 -985 2 -162 12 -377 22 -486 18
-185 18 -200 2 -265 -20 -79 -52 -124 -121 -171 -58 -40 -105 -49 -159 -33
-119 35 -163 174 -174 550 -8 296 11 557 78 1060 34 254 63 517 85 760 18 213
26 269 79 600 25 151 56 369 70 485 14 115 31 228 37 252 13 54 70 119 149
172 71 48 123 54 177 21z m13025 -24 c46 -19 104 -90 123 -151 16 -50 16 -56
-10 -176 -15 -68 -64 -277 -110 -464 -81 -331 -83 -340 -62 -343 11 -1 100 6
196 18 423 49 457 52 600 48 166 -4 202 -16 226 -73 32 -77 9 -200 -47 -252
-54 -49 -106 -62 -340 -83 -349 -31 -670 -78 -753 -110 -32 -12 -42 -45 -111
-375 -126 -605 -168 -874 -168 -1070 1 -326 69 -445 256 -446 138 -1 299 94
532 312 135 126 185 159 240 159 74 0 102 -45 92 -150 -10 -111 -119 -274
-297 -443 -224 -213 -444 -317 -669 -317 -287 1 -455 134 -532 425 -17 62 -22
120 -26 258 -8 255 13 419 121 973 69 355 98 538 94 595 l-3 44 -80 -1 c-44
-1 -132 -3 -195 -5 -93 -3 -123 0 -154 14 -105 46 -149 115 -150 238 -1 82 12
114 61 146 24 16 60 18 309 21 l283 3 30 34 c48 55 111 276 220 775 27 124 58
245 69 270 25 58 68 109 107 126 39 17 107 17 148 0z m-5153 -892 c101 -32
210 -152 247 -272 25 -80 22 -260 -5 -364 -62 -232 -169 -405 -387 -623 -202
-203 -412 -370 -712 -564 -233 -151 -256 -172 -273 -245 -10 -45 4 -183 25
-247 25 -76 88 -162 148 -202 72 -49 148 -69 266 -69 312 1 612 177 952 558
61 69 126 133 144 141 31 15 36 15 59 0 65 -43 57 -196 -18 -346 -93 -184
-342 -442 -579 -601 -326 -217 -706 -266 -997 -128 -155 74 -284 228 -352 420
-51 145 -63 232 -62 468 0 243 15 371 69 585 108 428 363 889 651 1179 261
262 587 385 824 310z m-1742 -89 c78 -33 122 -103 130 -205 4 -56 1 -73 -21
-116 -14 -28 -54 -77 -89 -110 -220 -207 -303 -306 -485 -579 -238 -358 -442
-723 -745 -1335 -220 -444 -275 -543 -342 -618 -53 -58 -85 -69 -142 -47 -47
18 -140 102 -160 146 -6 13 -21 78 -32 144 -26 145 -77 333 -183 674 -266 852
-372 1317 -373 1636 0 260 65 375 213 375 61 0 97 -13 135 -48 64 -60 86 -172
86 -437 0 -184 10 -289 46 -465 38 -191 138 -585 197 -780 115 -376 162 -519
170 -517 5 1 74 126 153 277 481 912 745 1379 922 1630 66 94 204 261 246 298
55 48 83 64 134 78 64 17 96 17 140 -1z m9585 -21 c116 -30 212 -88 317 -194
188 -188 294 -437 321 -753 49 -565 -193 -1147 -668 -1608 -183 -178 -360
-286 -558 -342 -100 -28 -300 -35 -385 -13 -271 70 -477 319 -551 668 -18 83
-22 136 -23 273 0 390 89 741 285 1125 271 531 568 798 957 860 76 12 228 4
305 -16z m-14623 -164 c83 -43 113 -144 113 -385 1 -209 -26 -431 -118 -1005
-61 -378 -71 -468 -56 -483 9 -9 16 -7 31 13 26 33 167 318 275 555 399 871
629 1165 945 1204 138 18 242 -20 336 -122 137 -148 203 -387 269 -972 52
-468 83 -664 119 -747 24 -57 73 -106 115 -118 43 -11 124 6 191 40 55 28 86
25 121 -9 26 -26 29 -36 29 -93 0 -88 -32 -152 -119 -239 -108 -108 -239 -158
-378 -145 -123 11 -230 89 -288 211 -55 118 -108 415 -145 825 -26 289 -45
428 -80 566 -48 193 -116 294 -198 294 -95 0 -209 -93 -317 -259 -116 -177
-209 -360 -499 -981 -112 -238 -259 -521 -321 -616 -59 -91 -144 -166 -208
-186 -28 -9 -53 -9 -100 0 -85 16 -135 52 -171 126 -50 100 -47 210 18 651 61
413 94 812 105 1290 7 304 10 334 30 386 27 70 99 175 137 200 39 25 113 25
164 -1z m8184 -3 c82 -46 109 -141 109 -377 1 -215 -23 -420 -118 -1010 -61
-381 -71 -468 -56 -483 9 -9 16 -7 31 13 25 33 166 316 275 555 399 870 625
1160 941 1204 136 20 245 -19 340 -122 137 -148 204 -388 269 -973 52 -468 83
-663 119 -746 24 -57 73 -106 115 -118 43 -11 124 6 191 40 55 28 86 25 121
-9 26 -26 29 -36 29 -93 0 -88 -32 -152 -119 -239 -108 -108 -239 -158 -378
-145 -123 11 -230 89 -288 211 -55 118 -108 414 -145 825 -30 334 -51 478 -92
615 -46 158 -112 245 -186 245 -95 0 -209 -94 -317 -259 -115 -177 -213 -369
-499 -981 -112 -238 -259 -521 -321 -616 -59 -91 -144 -166 -208 -186 -28 -9
-53 -9 -100 0 -85 16 -135 52 -171 126 -50 100 -47 210 18 651 61 413 94 812
105 1290 7 304 10 334 30 386 27 70 99 175 137 200 41 27 118 25 168 -4z"/>
<path d="M14558 6296 c-75 -27 -136 -72 -238 -175 -58 -58 -135 -149 -172
-201 -75 -106 -201 -350 -248 -480 -44 -119 -101 -342 -87 -334 32 18 184 127
287 204 386 292 611 547 665 757 25 96 14 175 -30 219 -20 20 -34 24 -82 24
-32 -1 -74 -7 -95 -14z"/>
<path d="M22470 6183 c-146 -20 -243 -67 -353 -173 -132 -125 -262 -343 -367
-611 -195 -502 -195 -1000 2 -1224 80 -91 201 -118 351 -79 313 81 684 491
820 909 38 116 57 213 66 348 24 360 -73 646 -260 767 -71 46 -185 74 -259 63z"/>
<path d="M4825 7948 c-16 -6 -38 -16 -48 -23 -16 -11 -302 -286 -672 -645
-250 -243 -719 -697 -965 -933 -118 -114 -223 -222 -232 -239 -23 -43 -23 -82
2 -133 21 -43 88 -111 545 -550 148 -143 346 -334 440 -425 93 -91 175 -169
181 -175 15 -13 216 -208 407 -394 82 -79 147 -149 145 -156 -2 -7 -70 -77
-153 -156 -82 -78 -253 -242 -380 -363 -126 -121 -331 -317 -455 -435 -297
-284 -421 -403 -560 -537 -63 -61 -221 -211 -350 -334 -225 -215 -275 -263
-559 -536 -187 -178 -209 -202 -221 -239 -20 -62 12 -130 77 -164 32 -16 109
-13 145 5 18 9 138 118 267 242 130 125 331 316 446 426 116 111 271 259 345
331 127 121 193 184 480 460 273 261 581 556 790 755 419 399 498 480 505 523
15 77 13 78 -420 497 -77 74 -205 198 -285 275 -80 77 -260 250 -400 385 -140
135 -322 311 -405 391 -82 80 -169 163 -192 184 -24 20 -43 43 -43 49 0 13 38
50 515 511 165 159 372 360 460 445 88 85 294 286 458 445 164 159 305 302
313 317 18 35 18 91 -1 128 -29 56 -120 90 -180 68z"/>
<path d="M3876 7926 c-46 -17 -12 14 -631 -586 -93 -91 -242 -235 -330 -321
-504 -488 -495 -478 -481 -552 11 -60 87 -117 153 -117 67 1 77 9 468 389 77
75 286 278 465 451 544 526 548 530 556 573 10 59 -10 113 -54 141 -48 32 -98
39 -146 22z"/>
<path d="M2912 7858 c-23 -13 -99 -79 -169 -148 -71 -69 -254 -246 -408 -395
-772 -743 -782 -754 -790 -797 -16 -82 -22 -75 573 -666 1167 -1160 1694
-1678 1725 -1694 70 -39 166 -14 207 54 22 37 25 71 9 115 -9 27 -740 758
-1934 1936 l-220 217 145 143 c80 78 273 266 430 417 643 620 660 638 660 702
0 41 -35 91 -80 115 -54 29 -96 29 -148 1z"/>
<path d="M1115 6156 c-50 -23 -77 -60 -83 -115 -6 -66 10 -90 145 -221 59 -57
223 -217 363 -355 140 -138 487 -477 770 -755 283 -278 607 -596 720 -707
l205 -202 -110 -108 c-61 -59 -295 -286 -520 -503 -226 -217 -451 -435 -502
-484 -51 -49 -99 -104 -109 -124 -42 -90 31 -192 136 -192 60 1 89 15 152 75
53 50 781 751 1023 986 71 69 158 153 192 186 34 33 67 72 73 87 14 38 13 111
-4 150 -14 34 -69 88 -1396 1392 -135 132 -366 360 -515 506 -315 309 -386
375 -421 388 -35 14 -83 12 -119 -4z"/>
<path d="M2535 3961 c-39 -19 -614 -526 -667 -590 -53 -62 -29 -169 46 -205
49 -23 114 -20 157 7 21 12 175 145 344 296 360 322 369 335 324 427 -15 31
-32 48 -63 63 -52 26 -89 26 -141 2z"/>
</g>
</svg>
