<?xml version="1.0" standalone="no"?>
<!DOCTYPE svg PUBLIC "-//W3C//DTD SVG 20010904//EN"
 "http://www.w3.org/TR/2001/REC-SVG-20010904/DTD/svg10.dtd">
<svg version="1.0" xmlns="http://www.w3.org/2000/svg"
 width="465.000000pt" height="465.000000pt" viewBox="0 0 465.000000 465.000000"
 preserveAspectRatio="xMidYMid meet">

<g transform="translate(0.000000,465.000000) scale(0.100000,-0.100000)"
fill="#000000" stroke="none">
<path d="M3073 3988 c-33 -24 -837 -865 -885 -926 -33 -41 -34 -57 -9 -97 10
-16 199 -219 420 -449 220 -231 401 -422 401 -426 0 -4 -84 -94 -187 -201
-477 -495 -718 -745 -843 -874 -244 -252 -260 -271 -260 -302 0 -37 37 -73 74
-73 33 0 45 11 457 440 156 162 398 414 539 560 399 414 400 414 400 450 0 36
38 -6 -454 510 -181 190 -343 359 -359 377 l-30 32 404 423 c223 233 414 436
427 452 27 35 28 67 5 94 -28 33 -64 37 -100 10z"/>
<path d="M2639 3993 c-21 -5 -670 -687 -687 -722 -27 -53 23 -112 82 -97 28 7
685 691 699 728 11 30 -8 73 -39 87 -26 11 -28 12 -55 4z"/>
<path d="M2182 3963 c-21 -8 -653 -674 -661 -696 -4 -11 -6 -31 -3 -44 3 -14
232 -268 554 -613 521 -560 551 -590 584 -590 43 0 74 29 74 70 0 23 -15 46
-62 98 -64 69 -603 648 -846 909 l-134 143 199 207 c417 435 393 408 393 447
0 51 -51 88 -98 69z"/>
<path d="M1320 3073 c-32 -12 -50 -37 -50 -70 0 -28 13 -47 77 -116 296 -317
858 -914 916 -974 l70 -71 -214 -224 c-117 -123 -253 -264 -302 -315 -82 -86
-88 -94 -85 -129 4 -46 43 -80 81 -70 31 7 663 663 678 703 17 47 1 79 -94
181 -530 566 -1011 1073 -1027 1082 -20 11 -27 11 -50 3z"/>
<path d="M1825 1769 c-148 -145 -165 -165 -165 -195 0 -41 32 -74 72 -74 23 0
58 29 186 152 86 83 163 162 170 176 27 48 -7 102 -64 102 -31 0 -51 -16 -199
-161z"/>
</g>
</svg>
